<svg width="12" height="12" viewBox="0 0 12 12" fill="none" xmlns="http://www.w3.org/2000/svg" class="uSYgE"><path fill-rule="evenodd" clip-rule="evenodd" d="M6 12A6 6 0 1 0 6 0a6 6 0 0 0 0 12Z" fill="#FFD200"></path><path fill-rule="evenodd" clip-rule="evenodd" d="M6 10.125a4.125 4.125 0 1 0 0-8.25 4.125 4.125 0 0 0 0 8.25Z" fill="#FFE749"></path><path fill-rule="evenodd" clip-rule="evenodd" d="M6.14 7.68a.3.3 0 0 0-.28 0l-1.211.637a.3.3 0 0 1-.435-.316l.231-1.35a.3.3 0 0 0-.086-.265l-.98-.955a.3.3 0 0 1 .166-.512l1.354-.197a.3.3 0 0 0 .226-.164l.606-1.228a.3.3 0 0 1 .538 0l.606 1.228a.3.3 0 0 0 .226.164l1.355.197a.3.3 0 0 1 .166.512l-.98.955a.3.3 0 0 0-.087.266L7.787 8a.3.3 0 0 1-.436.316L6.14 7.68Z" fill="#FEBE43"></path></svg>